<svg viewBox="0 0 100 100" fill="none" xmlns="http://www.w3.org/2000/svg">
    <!-- Ocean base -->
    <circle cx="50" cy="50" r="48" fill="url(#oceanGradient)"/>
    <!-- Continents -->
    <path d="M30 25c5-3 15-5 20 0s10 10 5 18c-3 5-10 8-15 5s-12-8-15-13c-2-4 0-8 5-10z" fill="url(#landGradient)" opacity="0.9"/>
    <path d="M55 30c8-2 18 2 22 10s2 20-8 25c-8 4-15 0-18-8s-4-15 0-20c2-4 6-6 4-7z" fill="url(#landGradient)" opacity="0.9"/>
    <path d="M25 50c3-2 10-1 15 3s8 12 5 18c-2 5-8 8-14 6s-10-8-10-15c0-5 2-10 4-12z" fill="url(#landGradient)" opacity="0.9"/>
    <path d="M60 60c5-1 12 2 15 8s2 14-5 18c-5 3-12 1-15-5s-3-12 0-16c2-3 3-4 5-5z" fill="url(#landGradient)" opacity="0.9"/>
    <!-- Atmosphere glow -->
    <circle cx="50" cy="50" r="48" fill="none" stroke="url(#atmosphereGradient)" stroke-width="3" opacity="0.6"/>
    <!-- Shine -->
    <ellipse cx="35" cy="30" rx="12" ry="8" fill="white" opacity="0.15" transform="rotate(-30 35 30)"/>
    <defs>
        <linearGradient id="oceanGradient" x1="0%" y1="0%" x2="100%" y2="100%">
            <stop offset="0%" stop-color="#1e40af"/>
            <stop offset="50%" stop-color="#3b82f6"/>
            <stop offset="100%" stop-color="#0ea5e9"/>
        </linearGradient>
        <linearGradient id="landGradient" x1="0%" y1="0%" x2="100%" y2="100%">
            <stop offset="0%" stop-color="#22c55e"/>
            <stop offset="100%" stop-color="#16a34a"/>
        </linearGradient>
        <linearGradient id="atmosphereGradient" x1="0%" y1="0%" x2="100%" y2="100%">
            <stop offset="0%" stop-color="#60a5fa"/>
            <stop offset="100%" stop-color="#a78bfa"/>
        </linearGradient>
    </defs>
</svg>
